<svg viewBox="0 0 1200 630" xmlns="http://www.w3.org/2000/svg" role="img" aria-labelledby="open-image-templates-og-title">
  <title id="open-image-templates-og-title">Open Image Templates</title>
  <defs>
    <mask id="open-image-templates-og-cutout">
      <rect x="0" y="0" width="210" height="108" rx="54" fill="white" />
      <circle cx="66" cy="54" r="21" fill="none" stroke="black" stroke-width="12" />
      <rect x="138" y="30" width="12" height="48" rx="6" fill="black" />
    </mask>
    <linearGradient id="open-image-templates-og-accent" x1="0" y1="0" x2="1" y2="1">
      <stop offset="0" stop-color="#015a9e" />
      <stop offset="1" stop-color="#11e9bb" />
    </linearGradient>
    <filter id="open-image-templates-og-shadow" x="-30%" y="-30%" width="160%" height="160%">
      <feDropShadow dx="0" dy="24" stdDeviation="28" flood-color="#18181b" flood-opacity="0.16" />
    </filter>
  </defs>

  <rect width="1200" height="630" fill="#f5f3ef" />
  <circle cx="1020" cy="110" r="210" fill="#e4fbf6" opacity="0.78" />
  <circle cx="160" cy="560" r="220" fill="#e8f1ff" opacity="0.62" />

  <g transform="translate(76 72) scale(0.82)">
    <rect x="0" y="0" width="210" height="108" rx="54" fill="#08090d" mask="url(#open-image-templates-og-cutout)" />
  </g>

  <g transform="translate(76 226)">
    <text x="0" y="0" font-family="Inter, system-ui, -apple-system, BlinkMacSystemFont, 'Segoe UI', sans-serif" font-size="76" font-weight="820" letter-spacing="-3.6" fill="#08090d">
      Open Image
    </text>
    <text x="0" y="82" font-family="Inter, system-ui, -apple-system, BlinkMacSystemFont, 'Segoe UI', sans-serif" font-size="76" font-weight="420" letter-spacing="-2.4" fill="#08090d">
      Templates
    </text>
    <text x="0" y="164" font-family="Inter, system-ui, -apple-system, BlinkMacSystemFont, 'Segoe UI', sans-serif" font-size="29" font-weight="520" fill="#52525b">
      Free, open prompt templates with visible
    </text>
    <text x="0" y="206" font-family="Inter, system-ui, -apple-system, BlinkMacSystemFont, 'Segoe UI', sans-serif" font-size="29" font-weight="520" fill="#52525b">
      prompts, editable controls, and JSON schema.
    </text>
  </g>

  <g transform="translate(724 94)" filter="url(#open-image-templates-og-shadow)">
    <rect x="0" y="0" width="360" height="430" rx="30" fill="#ffffff" />
    <rect x="30" y="30" width="300" height="222" rx="22" fill="url(#open-image-templates-og-accent)" />
    <circle cx="112" cy="128" r="52" fill="#ffffff" opacity="0.9" />
    <rect x="192" y="78" width="78" height="110" rx="18" fill="#08090d" opacity="0.92" />
    <rect x="30" y="286" width="228" height="18" rx="9" fill="#08090d" />
    <rect x="30" y="325" width="285" height="14" rx="7" fill="#d4d4d8" />
    <rect x="30" y="356" width="238" height="14" rx="7" fill="#d4d4d8" />
    <rect x="30" y="388" width="132" height="22" rx="11" fill="#e4fbf6" />
  </g>

  <g transform="translate(932 410)">
    <rect x="0" y="0" width="176" height="72" rx="36" fill="#08090d" />
    <text x="88" y="45" text-anchor="middle" font-family="Inter, system-ui, -apple-system, BlinkMacSystemFont, 'Segoe UI', sans-serif" font-size="23" font-weight="760" fill="#ffffff">
      nano-gpt.com
    </text>
  </g>
</svg>
